<?xml version="1.0" encoding="UTF-8" standalone="no"?>
<!-- Created with Inkscape (http://www.inkscape.org/) -->

<svg
   xmlns:dc="http://purl.org/dc/elements/1.1/"
   xmlns:cc="http://creativecommons.org/ns#"
   xmlns:rdf="http://www.w3.org/1999/02/22-rdf-syntax-ns#"
   xmlns:svg="http://www.w3.org/2000/svg"
   xmlns="http://www.w3.org/2000/svg"
   xmlns:sodipodi="http://sodipodi.sourceforge.net/DTD/sodipodi-0.dtd"
   xmlns:inkscape="http://www.inkscape.org/namespaces/inkscape"
   width="320px"
   height="180px"
   viewBox="0 0 320 180"
   version="1.1"
   id="SVGRoot"
   inkscape:version="0.92.0 r15299"
   sodipodi:docname="tinder-skip.svg">
  <sodipodi:namedview
     id="base"
     pagecolor="#ffffff"
     bordercolor="#666666"
     borderopacity="1.0"
     inkscape:pageopacity="0.0"
     inkscape:pageshadow="2"
     inkscape:zoom="2.8"
     inkscape:cx="161.88851"
     inkscape:cy="123.5745"
     inkscape:document-units="px"
     inkscape:current-layer="layer1"
     showgrid="false"
     inkscape:window-width="1920"
     inkscape:window-height="1017"
     inkscape:window-x="-8"
     inkscape:window-y="-8"
     inkscape:window-maximized="1" />
  <defs
     id="defs5036" />
  <metadata
     id="metadata5039">
    <rdf:RDF>
      <cc:Work
         rdf:about="">
        <dc:format>image/svg+xml</dc:format>
        <dc:type
           rdf:resource="http://purl.org/dc/dcmitype/StillImage" />
        <dc:title></dc:title>
      </cc:Work>
    </rdf:RDF>
  </metadata>
  <g
     id="layer1"
     inkscape:groupmode="layer"
     inkscape:label="Ebene 1">
    <text
       xml:space="preserve"
       style="font-style:normal;font-variant:normal;font-weight:normal;font-stretch:normal;font-size:53.33333206px;line-height:25px;font-family:'Hobo Std';-inkscape-font-specification:'Hobo Std';letter-spacing:0px;word-spacing:0px;fill:#0066ff;fill-opacity:1;stroke:#000000;"
       x="104.63156"
       y="162.01408"
       id="text5597"
       transform="rotate(0.57927696)"><tspan
         sodipodi:role="line"
         id="tspan5595"
         x="104.63156"
         y="162.01408">skip</tspan></text>
    <path
       style="opacity:1;fill:#66ff00;fill-opacity:1;stroke:#0066ff;stroke-width:1.89995575;stroke-opacity:1"
       id="path5615"
       d="m 206.35829,116.04062 c -1.81166,-0.22107 -1.76922,-0.20202 -3.90303,-0.54844 -3.02472,-0.49105 -5.23978,-0.9302 -8.37511,-1.39935 -6.04525,-0.90458 -7.35761,-0.99295 -13.67631,-1.70638 -2.45268,-0.23172 -4.89821,-0.4786 -7.35805,-0.69517 -5.32507,-0.46885 -9.04728,-0.76097 -14.44742,-1.01613 -6.78359,-0.32051 -13.67141,-0.36565 -20.55495,-0.42775 -5.20644,0.0605 -10.37479,-0.009 -15.62372,0.1759 -3.50866,0.12338 -7.06789,0.43195 -10.63131,0.76259 -2.3595,0.26419 -4.72572,0.54459 -7.10643,0.92497 -0.0866,0.0139 -2.56421,0.44351 -2.83781,0.51736 -0.32126,0.0868 -0.63561,0.2376 -0.95339,0.35628 -0.20722,0.20592 -0.46111,0.39104 -0.6222,0.61754 -0.927019,1.30159 -0.904149,3.63709 -0.935139,4.78993 -0.0663,2.47085 0.0784,4.49114 0.19087,6.94044 0.655969,8.2632 0.755159,16.68452 1.106159,25.03478 0.25015,4.65951 0.39736,9.3472 0.55385,14.03273 -0.0125,1.695 0.0949,3.35794 0.11093,5.04532 -0.003,1.05917 0.52333,1.37979 1.61435,1.61136 2.21039,0.40429 4.7382,-0.0859 7.1888,-0.45767 1.23763,-0.18778 2.47609,-0.38071 3.71412,-0.57106 10.03659,-1.45664 19.95221,-2.18954 29.67362,-2.3849 2.21614,-0.0445 4.40765,-0.0173 6.61146,-0.026 10.26501,0.28755 20.25045,1.23709 30.29464,2.03266 2.57419,0.24257 5.24221,0.34889 7.69175,0.83801 0.93776,0.28412 1.71906,0.76184 2.61015,1.10822 0.48449,0.0727 1.58271,0.69271 2.14155,0.41499 0.14739,-0.0732 0.25669,-0.20161 0.38516,-0.3024 0.15704,-0.20172 0.33709,-0.39611 0.47177,-0.60476 0.70945,-1.09623 1.50732,-2.70638 2.00953,-3.72856 1.44149,-2.9344 2.51896,-5.2398 3.68466,-8.24917 0.68218,-1.76116 1.25656,-3.52345 1.88484,-5.28517 1.93986,-5.96755 3.60127,-11.9296 4.91313,-17.85707 1.03494,-4.67606 1.795,-9.3211 2.54668,-13.96041 0.15476,-0.98125 0.30967,-1.96252 0.46454,-2.94376 0,0 -0.65452,-0.38403 -0.65452,-0.38403 v 0 c -0.2173,0.94467 -0.43435,1.88932 -0.65156,2.83403 -2.35709,10.50937 -4.55523,21.01351 -7.79584,31.59429 -0.58018,1.78823 -1.12659,3.5757 -1.74081,5.3645 -0.91504,2.66487 -2.14609,5.84808 -3.19077,8.54922 -0.19762,0.51272 -1.1841,3.11659 -1.60891,3.97367 -0.10834,0.218 -0.27467,0.42588 -0.4115,0.6392 -0.1251,0.0999 -0.23086,0.22766 -0.37572,0.2991 -0.54323,0.26784 -1.67612,-0.37196 -2.15714,-0.44214 -0.90243,-0.34521 -1.68614,-0.83009 -2.62772,-1.12237 -2.60375,-0.58259 -5.3705,-0.90132 -8.10842,-1.23973 -10.11008,-1.18727 -20.28717,-2.28138 -30.82936,-2.52109 -2.20567,0.0103 -4.39804,-0.0182 -6.61709,0.0312 -9.53579,0.2124 -19.29203,1.04776 -29.18775,2.8614 -1.18995,0.23329 -2.37947,0.46136 -3.56989,0.69989 -2.33182,0.46719 -4.71585,1.11788 -6.83851,0.76084 -1.03363,-0.20993 -1.4341,-0.44024 -1.39956,-1.45608 0.0374,-1.64231 -0.004,-3.26598 0.10449,-4.92527 0.0671,-4.59538 0.1034,-9.18256 -0.0115,-13.73181 -0.13609,-8.39844 -0.22698,-16.81294 -1.06044,-25.01381 -0.18373,-2.10922 -0.45655,-4.95943 -0.560479,-7.13773 -0.0497,-1.04194 -0.35803,-3.72868 0.511569,-5.00682 0.152,-0.22343 0.42294,-0.39218 0.63439,-0.58829 0.33204,-0.10334 0.66352,-0.2378 0.99612,-0.30999 0.23612,-0.0513 2.92073,-0.40745 2.95245,-0.41131 2.44147,-0.29885 4.87384,-0.54357 7.29425,-0.74797 2.6387,-0.19119 4.17376,-0.32198 6.83292,-0.42908 6.75675,-0.2721 13.3197,0.0143 19.97579,0.0292 6.90978,0.11141 13.83795,0.18525 20.653,0.53698 5.05244,0.26077 9.51093,0.63275 14.49027,1.06805 2.44887,0.21408 4.88789,0.44915 7.33182,0.67369 3.90282,0.38155 9.35699,0.89755 13.29645,1.34527 2.67337,0.30382 5.2978,0.70438 7.97422,1.00204 2.02446,0.22518 1.88356,0.19449 3.58443,0.23527 0,0 -0.0723,-0.0693 -0.0723,-0.0693 z"
       inkscape:connector-curvature="0" />
  </g>
</svg>
