<?xml version="1.0" encoding="UTF-8" standalone="no"?>
<!-- Created with Inkscape (http://www.inkscape.org/) -->

<svg
   xmlns:dc="http://purl.org/dc/elements/1.1/"
   xmlns:cc="http://creativecommons.org/ns#"
   xmlns:rdf="http://www.w3.org/1999/02/22-rdf-syntax-ns#"
   xmlns:svg="http://www.w3.org/2000/svg"
   xmlns="http://www.w3.org/2000/svg"
   xmlns:sodipodi="http://sodipodi.sourceforge.net/DTD/sodipodi-0.dtd"
   xmlns:inkscape="http://www.inkscape.org/namespaces/inkscape"
   width="320px"
   height="180px"
   viewBox="0 0 320 180"
   version="1.1"
   id="SVGRoot"
   inkscape:version="0.92.0 r15299"
   sodipodi:docname="tinder-nope.svg">
  <sodipodi:namedview
     id="base"
     pagecolor="#ffffff"
     bordercolor="#666666"
     borderopacity="1.0"
     inkscape:pageopacity="0.0"
     inkscape:pageshadow="2"
     inkscape:zoom="2.8"
     inkscape:cx="161.88851"
     inkscape:cy="123.5745"
     inkscape:document-units="px"
     inkscape:current-layer="layer1"
     showgrid="false"
     inkscape:window-width="1920"
     inkscape:window-height="1017"
     inkscape:window-x="-8"
     inkscape:window-y="-8"
     inkscape:window-maximized="1" />
  <defs
     id="defs5036" />
  <metadata
     id="metadata5039">
    <rdf:RDF>
      <cc:Work
         rdf:about="">
        <dc:format>image/svg+xml</dc:format>
        <dc:type
           rdf:resource="http://purl.org/dc/dcmitype/StillImage" />
        <dc:title></dc:title>
      </cc:Work>
    </rdf:RDF>
  </metadata>
  <g
     id="layer1"
     inkscape:groupmode="layer"
     inkscape:label="Ebene 1">
    <text
       xml:space="preserve"
       style="font-style:normal;font-variant:normal;font-weight:normal;font-stretch:normal;font-size:53.33333206px;line-height:25px;font-family:'Hobo Std';-inkscape-font-specification:'Hobo Std';letter-spacing:0px;word-spacing:0px;fill:#ff0000;fill-opacity:1;stroke:#000000"
       x="189.35388"
       y="-13.139594"
       id="text5597"
       transform="rotate(17.908744)"><tspan
         sodipodi:role="line"
         id="tspan5595"
         x="189.35388"
         y="-13.139594">nope</tspan></text>
    <path
       style="opacity:1;fill:#ff0000;fill-opacity:1;stroke:#ff0000;stroke-width:1.97573662;stroke-opacity:1"
       id="path5615"
       d="m 313.50722,45.993434 c -2.03726,-0.864199 -1.99305,-0.832096 -4.37085,-1.923485 -3.37055,-1.547048 -5.81876,-2.747964 -9.32268,-4.317542 -6.7559,-3.026321 -8.24982,-3.591016 -15.36996,-6.555953 -2.77519,-1.112253 -5.53829,-2.234794 -8.32557,-3.336765 -6.03394,-2.385561 -10.26063,-4.022649 -16.43532,-6.253644 -7.75654,-2.802515 -15.70312,-5.408591 -23.64045,-8.027576 -6.03064,-1.889103 -11.9845,-3.874752 -18.09562,-5.6736397 -4.08497,-1.202466 -8.27519,-2.2655965 -12.47582,-3.3113844 -2.79284,-0.6538105 -5.5976,-1.2962664 -8.44431,-1.8587009 -0.10328,-0.02044 -3.07472,-0.5769225 -3.40948,-0.6158122 -0.3931,-0.045662 -0.79439,-0.033919 -1.19156,-0.050969 -0.29163,0.098581 -0.63156,0.1622213 -0.87492,0.2957025 -1.39991,0.7666002 -1.96381,2.7705108 -2.29095,3.7439697 -0.70106,2.086404 -1.04444,3.866471 -1.53349,6.001103 -1.33038,7.304662 -3.34402,14.536906 -5.04879,21.802261 -0.88853,4.074374 -1.90314,8.134451 -2.90646,12.196132 -0.44271,1.443606 -0.73901,2.904413 -1.1469,4.352111 -0.27151,0.903733 0.25594,1.373983 1.45794,1.978524 2.45164,1.169385 5.49608,1.692846 8.42138,2.28868 1.47739,0.300904 2.95701,0.59771 4.43551,0.896573 11.96408,2.496685 23.60551,5.566677 34.88671,9.023514 2.57172,0.788025 5.09684,1.628188 7.64524,2.442322 11.7872,4.072093 23.08411,8.605589 34.48779,13.029422 2.91286,1.166809 5.96853,2.252183 8.67504,3.583196 1.01166,0.592306 1.79362,1.29172 2.7356,1.919824 0.5414,0.242693 1.65352,1.18186 2.36941,1.152874 0.18886,-0.0076 0.34754,-0.07658 0.52143,-0.114811 0.23254,-0.113712 0.48958,-0.212782 0.69791,-0.340851 1.09673,-0.672172 2.42547,-1.750465 3.26403,-2.436649 2.40705,-1.969818 4.23456,-3.537942 6.34191,-5.674633 1.23326,-1.250448 2.34229,-2.542007 3.51338,-3.813056 3.74939,-4.375639 7.17566,-8.850331 10.18935,-13.425814 2.37749,-3.609474 4.42952,-7.294907 6.47045,-10.97856 0.42678,-0.78071 0.85374,-1.561362 1.28066,-2.342025 0,0 -0.65911,-0.572168 -0.65911,-0.572168 v 0 c -0.48976,0.726178 -0.97931,1.452367 -1.46901,2.178555 -5.37925,8.100663 -10.57354,16.256096 -16.99162,24.088425 -1.12235,1.311517 -2.20528,2.63515 -3.36701,3.93457 -1.73066,1.935789 -3.95788,4.196258 -5.84709,6.115114 -0.35832,0.363994 -2.15558,2.221569 -2.86309,2.795428 -0.18018,0.14595 -0.4249,0.26155 -0.63697,0.392741 -0.16981,0.03858 -0.3243,0.108413 -0.50967,0.115503 -0.69532,0.02636 -1.84255,-0.942592 -2.38056,-1.181874 -0.95539,-0.631337 -1.73834,-1.33774 -2.75236,-1.938466 -2.86104,-1.468363 -5.97711,-2.772016 -9.0549,-4.08175 -11.38081,-4.783072 -22.8626,-9.511514 -34.98215,-13.646049 -2.55099,-0.813343 -5.07677,-1.655039 -7.65305,-2.439966 -11.07105,-3.373114 -22.55422,-6.296135 -34.44579,-8.435305 -1.43379,-0.244231 -2.86577,-0.49278 -4.30142,-0.73272 -2.81219,-0.470041 -5.73105,-0.802765 -8.09327,-1.899059 -1.14119,-0.564679 -1.54566,-0.910735 -1.24905,-1.765801 0.45826,-1.389263 0.82106,-2.79187 1.36543,-4.169243 1.23874,-3.901387 2.44004,-7.807141 3.45702,-11.736881 1.96526,-7.226403 3.98675,-14.449709 5.09636,-21.767268 0.32075,-1.870652 0.72584,-4.407598 1.15625,-6.3074844 0.2059,-0.9087645 0.52871,-3.3192488 1.85641,-4.0871713 0.23198,-0.1343254 0.58773,-0.1774386 0.88165,-0.266125 0.40975,0.035477 0.82672,0.044156 1.22922,0.1064405 0.28578,0.044191 3.47752,0.7406347 3.51515,0.7491472 2.89632,0.6547472 5.76842,1.3523576 8.61657,2.0799608 3.09698,0.8202262 4.90361,1.2807 8.00299,2.1804437 7.87529,2.2861735 15.38553,4.9773065 23.07201,7.4711565 7.9552,2.670914 15.94114,5.316538 23.72616,8.157472 5.77152,2.106161 10.82871,4.085927 16.47168,6.313962 2.77525,1.095751 5.53381,2.205776 8.30069,3.308632 4.41279,1.78083 10.58397,4.254816 15.02234,6.105816 3.01196,1.25613 5.9429,2.576639 8.95995,3.828651 2.28209,0.947028 2.12704,0.868278 4.08187,1.537155 0,0 -0.066,-0.08608 -0.066,-0.08608 z"
       inkscape:connector-curvature="0" />
  </g>
</svg>
