<?xml version="1.0" encoding="UTF-8" standalone="no"?>
<!-- Created with Inkscape (http://www.inkscape.org/) -->

<svg
   xmlns:dc="http://purl.org/dc/elements/1.1/"
   xmlns:cc="http://creativecommons.org/ns#"
   xmlns:rdf="http://www.w3.org/1999/02/22-rdf-syntax-ns#"
   xmlns:svg="http://www.w3.org/2000/svg"
   xmlns="http://www.w3.org/2000/svg"
   xmlns:sodipodi="http://sodipodi.sourceforge.net/DTD/sodipodi-0.dtd"
   xmlns:inkscape="http://www.inkscape.org/namespaces/inkscape"
   width="320px"
   height="180px"
   viewBox="0 0 320 180"
   version="1.1"
   id="SVGRoot"
   inkscape:version="0.92.0 r15299"
   sodipodi:docname="tinder-like.svg">
  <sodipodi:namedview
     id="base"
     pagecolor="#ffffff"
     bordercolor="#666666"
     borderopacity="1.0"
     inkscape:pageopacity="0.0"
     inkscape:pageshadow="2"
     inkscape:zoom="2.8"
     inkscape:cx="161.88851"
     inkscape:cy="123.5745"
     inkscape:document-units="px"
     inkscape:current-layer="layer1"
     showgrid="false"
     inkscape:window-width="1920"
     inkscape:window-height="1017"
     inkscape:window-x="-8"
     inkscape:window-y="-8"
     inkscape:window-maximized="1" />
  <defs
     id="defs5036" />
  <metadata
     id="metadata5039">
    <rdf:RDF>
      <cc:Work
         rdf:about="">
        <dc:format>image/svg+xml</dc:format>
        <dc:type
           rdf:resource="http://purl.org/dc/dcmitype/StillImage" />
        <dc:title></dc:title>
      </cc:Work>
    </rdf:RDF>
  </metadata>
  <g
     id="layer1"
     inkscape:groupmode="layer"
     inkscape:label="Ebene 1">
    <text
       xml:space="preserve"
       style="font-style:normal;font-variant:normal;font-weight:normal;font-stretch:normal;font-size:53.33333206px;line-height:25px;font-family:'Hobo Std';-inkscape-font-specification:'Hobo Std';letter-spacing:0px;word-spacing:0px;fill:#00d400;fill-opacity:1;stroke:#000000"
       x="-0.23163104"
       y="81.981155"
       id="text5597"
       transform="rotate(-17.777959)"><tspan
         sodipodi:role="line"
         id="tspan5595"
         x="-0.23163104"
         y="81.981155">like</tspan></text>
    <path
       style="opacity:1;fill:#66ff00;fill-opacity:1;stroke:#00d400;stroke-width:1.87840223;stroke-opacity:1"
       id="path5615"
       d="m 10.994313,82.594622 c 1.760288,-0.292117 1.715116,-0.298581 3.812855,-0.560143 2.973569,-0.370781 5.173765,-0.566026 8.24477,-0.988588 5.921237,-0.814731 7.176021,-1.095153 13.299221,-2.169256 2.36395,-0.460261 4.72552,-0.904005 7.091881,-1.380795 5.122717,-1.032136 8.693381,-1.787743 13.825799,-3.045652 6.447245,-1.580195 12.913987,-3.453449 19.381541,-5.309238 4.861308,-1.506654 9.723706,-2.878427 14.589595,-4.515937 3.25261,-1.094579 6.500031,-2.3808 9.745125,-3.689359 2.13586,-0.909837 4.27343,-1.837107 6.39619,-2.864267 0.0771,-0.0373 2.27679,-1.13874 2.51218,-1.285674 0.2764,-0.172547 0.52812,-0.404677 0.7922,-0.606904 0.1357,-0.255112 0.32104,-0.503246 0.40768,-0.765262 0.49913,-1.505967 -0.1853,-3.738992 -0.48355,-4.85302 -0.63928,-2.38764 -1.34841,-4.284527 -2.14911,-6.601748 -2.96044,-7.740645 -5.44405,-15.78785 -8.14344,-23.696845 C 98.760109,15.863766 97.291407,11.409916 95.814637,6.9607473 95.345084,5.332022 94.772473,3.7673759 94.27841,2.1538941 93.98084,1.1373819 93.396344,0.97649475 92.308322,1.0580296 90.122402,1.2854045 87.892975,2.4587758 85.702286,3.4971385 84.595925,4.0215616 83.490259,4.551151 82.384248,5.0781457 73.393423,9.2675137 64.310469,12.729257 55.256901,15.621563 c -2.063886,0.659353 -4.125069,1.243042 -6.187604,1.864516 -9.700023,2.5805 -19.325997,4.448471 -28.963326,6.480412 -2.480892,0.483688 -5.011025,1.124112 -7.445117,1.336698 -0.959347,-0.0115 -1.827042,-0.252163 -2.7603246,-0.33635 -0.4746107,0.06512 -1.6796577,-0.223825 -2.1244559,0.197958 -0.117339,0.111167 -0.1832891,0.26475 -0.2750582,0.397132 -0.089882,0.23712 -0.2034038,0.473614 -0.2703741,0.711156 -0.3535522,1.248525 -0.6440644,3.014412 -0.8244546,4.13428 -0.5176687,3.214742 -0.8727987,5.72509 -1.1107561,8.934981 -0.139246,1.878501 -0.1771494,3.728097 -0.2657293,5.592137 -0.1235764,6.261771 0.012187,12.440764 0.4656785,18.489361 0.357714,4.77162 0.9641756,9.436997 1.5768684,14.094558 0.133555,0.983932 0.2669685,1.967926 0.4004118,2.951891 0,0 0.7223126,0.186106 0.7223126,0.186106 v 0 C 8.1304033,79.690141 8.0656125,78.723959 8.0009503,77.757695 7.2261211,67.024902 6.3038474,56.341369 6.3366146,45.294282 c 0.035991,-1.876078 0.040537,-3.742037 0.1082581,-5.628143 0.1008847,-2.809814 0.3507305,-6.204576 0.5627901,-9.085259 0.039633,-0.546594 0.2247701,-3.317822 0.3795117,-4.257831 0.039619,-0.239179 0.1364634,-0.484774 0.204122,-0.727397 0.088857,-0.130574 0.1516847,-0.282516 0.2671263,-0.391337 0.4329777,-0.40797 1.6761356,-0.109724 2.1467782,-0.176265 0.943579,0.07991 1.815567,0.326765 2.780821,0.345014 2.605116,-0.16586 5.288056,-0.630092 7.949577,-1.067429 9.810254,-1.674693 19.656853,-3.457372 29.603007,-6.16087 2.063791,-0.623657 4.126186,-1.206237 6.191398,-1.871086 8.874814,-2.856979 17.779323,-6.3726175 26.536825,-10.8650963 1.048756,-0.5548027 2.09861,-1.1044725 3.146315,-1.664417 2.052313,-1.0967948 4.101441,-2.3840495 6.19174,-2.6323289 1.028123,-0.086321 1.468743,0.023089 1.724765,1.0067295 0.431197,1.5851438 0.930683,3.1305441 1.300325,4.7516713 1.241769,4.4249404 2.50991,8.8334744 3.908998,13.1635714 2.511668,8.014997 4.985588,16.057953 8.094628,23.68946 0.77093,1.971315 1.83569,4.628335 2.55146,6.688073 0.34239,0.985229 1.39398,3.475628 0.942,4.943141 -0.079,0.256528 -0.28496,0.49372 -0.42742,0.740595 -0.28178,0.19147 -0.55421,0.412639 -0.84537,0.574416 -0.20668,0.114888 -2.62107,1.203372 -2.6497,1.215901 -2.20284,0.965882 -4.4125,1.877328 -6.62242,2.746798 -2.418205,0.917539 -3.819442,1.470077 -6.280696,2.312673 -6.253862,2.140953 -12.484701,3.692443 -18.725728,5.530231 -6.506143,1.815788 -13.018841,3.672762 -19.504446,5.231771 -4.808192,1.155791 -9.091426,2.039691 -13.880664,3.007801 -2.355389,0.476129 -4.707498,0.929378 -7.061215,1.394095 -3.765292,0.720108 -9.022377,1.742954 -12.840767,2.40981 -2.59122,0.452537 -5.164024,0.798709 -7.756359,1.258003 -1.96086,0.347392 -1.820116,0.337619 -3.425422,0.771775 0,0 0.08738,0.04625 0.08738,0.04625 z"
       inkscape:connector-curvature="0" />
  </g>
</svg>
